<?xml version="1.0" standalone="no"?>
<!DOCTYPE svg PUBLIC "-//W3C//DTD SVG 20010904//EN"
 "http://www.w3.org/TR/2001/REC-SVG-20010904/DTD/svg10.dtd">
<svg version="1.0" xmlns="http://www.w3.org/2000/svg"
 width="1280.000000pt" height="1199.000000pt" viewBox="0 0 1280.000000 1199.000000"
 preserveAspectRatio="xMidYMid meet">
<g transform="translate(0.000000,1199.000000) scale(0.100000,-0.100000)"
fill="#000000" stroke="none">
<path d="M9435 11978 c-27 -5 -90 -16 -140 -24 -49 -8 -136 -30 -192 -49 -208
-69 -347 -157 -514 -324 -64 -64 -148 -144 -187 -178 -274 -243 -492 -646
-616 -1138 -57 -231 -140 -735 -181 -1110 -37 -342 -121 -670 -285 -1120 -86
-235 -351 -899 -368 -921 -10 -12 -78 -98 -153 -190 -419 -520 -796 -1087
-1023 -1541 -19 -39 -40 -74 -45 -78 -14 -8 -18 -1 -361 590 -471 810 -700
1212 -745 1310 -123 263 -178 536 -210 1041 -8 131 -20 313 -25 404 -21 319
-48 507 -85 580 -54 106 -70 177 -70 305 1 106 4 128 27 187 39 99 89 165 181
242 87 73 156 109 287 150 138 44 168 44 305 -2 158 -53 226 -65 334 -60 78 4
98 9 165 42 89 44 112 74 102 140 -4 22 -10 89 -15 147 -9 128 -33 184 -117
278 -95 105 -207 186 -589 426 -151 96 -250 172 -315 241 -186 200 -311 299
-483 383 -465 227 -1013 206 -1407 -55 -76 -50 -208 -166 -278 -244 -156 -174
-279 -400 -370 -681 -56 -173 -62 -193 -147 -564 -157 -682 -154 -674 -538
-1460 -348 -713 -451 -981 -532 -1390 -26 -135 -44 -194 -83 -286 -245 -571
-431 -1292 -546 -2114 -69 -492 -111 -937 -176 -1895 -12 -168 -25 -321 -31
-340 -14 -53 -10 -111 9 -150 15 -29 23 -35 47 -33 16 1 34 -2 41 -8 8 -7 14
0 19 28 3 20 22 66 40 103 53 105 79 203 78 295 0 44 -1 125 -2 180 -1 93 29
373 50 475 5 25 14 81 19 125 19 146 47 186 72 103 10 -32 13 -140 12 -428 -1
-362 -11 -616 -49 -1160 l-13 -195 29 -40 c49 -66 87 -153 100 -228 16 -97 2
-203 -57 -432 -75 -296 -67 -392 44 -500 46 -44 52 -54 52 -90 0 -56 24 -133
54 -173 82 -112 314 -181 518 -153 172 23 295 76 604 262 285 171 319 185 530
220 166 27 182 28 217 14 48 -19 138 -19 202 0 66 20 159 68 300 155 63 38
118 70 121 70 3 0 36 -27 72 -61 49 -44 68 -69 72 -92 6 -36 29 -50 146 -91
143 -50 223 -61 449 -61 263 1 339 11 882 120 366 73 430 89 477 115 52 30
116 90 116 109 0 5 -15 22 -32 37 -18 15 -40 46 -49 69 -9 23 -30 63 -48 88
l-32 47 -114 0 c-205 0 -366 33 -524 106 -212 99 -338 237 -399 434 -25 82
-34 198 -23 275 19 123 94 517 147 774 197 949 234 1257 205 1705 -15 220 -11
228 65 168 181 -143 291 -345 514 -942 49 -129 105 -275 126 -324 l37 -89 -19
-71 c-39 -147 -16 -396 53 -591 77 -216 290 -506 388 -531 34 -8 149 55 239
131 87 75 99 91 161 214 67 135 104 238 169 471 106 380 123 423 337 856 206
419 283 562 375 700 117 175 297 355 326 326 13 -13 42 -147 63 -292 18 -129
40 -390 55 -650 25 -463 58 -788 92 -930 6 -25 12 -106 13 -180 4 -211 31
-337 165 -745 132 -404 162 -585 125 -760 -25 -120 -66 -188 -181 -303 -142
-141 -150 -172 -71 -290 45 -69 81 -94 184 -132 187 -67 438 -103 742 -104
l213 -1 47 -51 c25 -27 70 -95 100 -150 30 -54 70 -122 88 -151 18 -29 43 -74
57 -101 45 -89 124 -142 216 -142 19 0 66 -7 105 -15 96 -20 205 -19 319 5
115 24 187 56 252 113 55 48 145 183 162 242 6 22 34 123 62 225 83 299 119
410 166 501 52 101 132 194 218 251 33 23 79 56 101 74 54 43 160 101 221 119
137 41 264 -15 264 -118 0 -91 -71 -176 -325 -389 -152 -127 -261 -233 -284
-277 -12 -21 -9 -27 27 -65 22 -22 47 -55 55 -72 23 -46 77 -68 172 -71 44 -2
214 -10 379 -20 258 -14 329 -15 525 -4 262 14 312 24 441 84 105 50 179 116
199 177 22 72 -27 174 -181 377 -61 81 -128 173 -149 206 l-39 60 0 411 c0
612 -28 1111 -96 1716 -42 374 -151 1038 -193 1173 -23 76 -35 167 -26 196 29
93 215 -121 255 -295 27 -113 462 -1432 540 -1634 29 -74 70 -182 92 -240 67
-178 95 -226 163 -286 82 -71 112 -71 161 1 28 41 82 179 100 254 18 79 48
404 41 456 -5 39 -87 485 -148 810 -104 550 -240 1033 -388 1384 -33 79 -149
314 -257 522 -282 547 -475 948 -675 1408 -132 302 -299 724 -325 821 -48 183
-98 292 -294 645 -259 465 -313 610 -314 835 l-1 125 117 155 c64 85 131 169
150 187 57 54 311 263 357 294 43 28 48 29 122 23 62 -5 95 -2 169 16 95 23
112 23 265 0 50 -8 93 -8 152 0 92 12 127 23 228 72 105 51 107 52 194 170 8
10 19 53 26 95 11 67 10 87 -7 162 -10 47 -28 105 -40 129 -33 69 -108 137
-201 181 -101 49 -211 77 -532 136 -429 79 -556 122 -692 232 -139 113 -352
227 -552 293 -137 46 -218 64 -405 91 -149 20 -230 22 -311 7z"/>
</g>
</svg>
